# xmcd CD database file
#
# Track frame offsets:
#	150
#	24312
#	43735
#	72427
#	96750
#	118785
#	142490
#	164782
#	186202
#
# Disc length: 2596 seconds
#
# Revision: 2
# Processed by: cddbd v1.5.1PL0 Copyright (c) Steve Scherf et al.
# Submitted via: CDex 1.51
#
DISCID=8a0a2209
DTITLE=Larry Carlton - Discovery
DYEAR=1987
DGENRE=Jazz
TTITLE0=Hello Tomorrow
TTITLE1=Those Eyes
TTITLE2=Knock On Wood
TTITLE3=Discovery
TTITLE4=My Home Away From Home
TTITLE5=March Of The Jazz Angels
TTITLE6=Minute By Minute
TTITLE7=A Place For Skipper
TTITLE8=Her Favorite Song
EXTD=YEAR: 1987
EXTT0=
EXTT1=
EXTT2=
EXTT3=
EXTT4=
EXTT5=
EXTT6=
EXTT7=
EXTT8=
PLAYORDER=
